<svg xmlns="http://www.w3.org/2000/svg" version="1.0" viewBox="0 0 800.011 386.526"><path d="M388.072 385.976c-20.488-2.851-41.451-14.536-53.828-30.004l-4.73-5.91-2.25 2.875c-1.764 2.253-3.384 3.031-7.494 3.596-2.883.397-8.471 2.014-12.417 3.594C303.4 361.71 298.276 363 295.94 363c-3.643 0-4.742-.547-7.836-3.898-1.979-2.144-4.695-4.056-6.036-4.25-1.623-.234-3.35-1.856-5.169-4.852-5.04-8.302-3.31-11.4 6.513-11.665 9.393-.255 13.82-1.844 10.63-3.816-1.443-.891-33.113-1.137-36.163-.28-1.699.478-3.248 2.071-4.374 4.5-2.419 5.218-5.144 7.958-10.981 11.041-4.5 2.377-5.975 2.629-14.4 2.46-8.81-.177-9.577-.028-12.5 2.437-4.283 3.612-8.951 5.406-12.317 4.732-2.395-.479-3.408.08-6.614 3.652l-3.786 4.217-6.698-.614c-3.684-.338-7.347-.208-8.14.288-1.585.993-5.85-.792-7.956-3.329-1.017-1.225-.848-2.616.9-7.412 1.72-4.717 3.368-6.973 8.197-11.224 6.599-5.808 10.215-6.731 13.769-3.516 2.401 2.174 4.461.954 5.507-3.262 1.15-4.634 4.368-7.209 9.007-7.209 2.274 0 4.972-.612 5.995-1.36 1.65-1.206 1.733-1.859.743-5.75-.615-2.415-1.395-6.124-1.734-8.244l-.616-3.854-4.458.669c-9.961 1.494-19.631-4.16-22.884-13.38-2.762-7.826.012-15.571 8.377-23.396 2.802-2.62 5.094-4.913 5.094-5.094 0-.181-1.58-.586-3.51-.899-4.41-.716-9.075-3.988-11.005-7.721-1.881-3.638-1.913-10.004-.063-12.53 1.388-1.896 1.57-1.868 7.882 1.242 3.553 1.75 8.201 3.498 10.328 3.883 8.467 1.535 12.39 5.323 12.333 11.907-.048 5.424-1.783 8.216-8.116 13.055-9.372 7.16-12.243 14.077-7.721 18.6 1.823 1.823 2.939 2.053 7.822 1.61 6.081-.551 12.975-3.495 17.05-7.28 4.465-4.147 13.87-8.458 18.452-8.458 5.858 0 10.386-1.723 14.753-5.613 4.948-4.408 10.981-7.384 15.005-7.402 3.6-.016 5.387-.881 11.714-5.675 2.316-1.754 8.357-4.571 13.426-6.26 5.068-1.689 10.87-4.194 12.892-5.568 5.265-3.578 12.742-5.136 17.5-3.646l3.758 1.176 5.255-5.904c11.019-12.38 26.513-21.88 42.745-26.21 9.624-2.568 29.587-3.086 39-1.011 9.467 2.085 20.786 6.814 28.709 11.992 7.012 4.583 18.368 15.019 21.433 19.697 1.357 2.072 1.681 2.137 4.165.841 4.781-2.494 12.71-1.176 19.116 3.177 1.932 1.312 7.659 3.767 12.727 5.456 5.07 1.689 11.11 4.506 13.426 6.26 6.327 4.794 8.114 5.66 11.714 5.675 4.024.018 10.057 2.994 15.005 7.402 4.367 3.89 8.895 5.613 14.753 5.613 4.583 0 13.988 4.31 18.452 8.458 4.076 3.785 10.97 6.729 17.05 7.28 4.883.443 5.999.213 7.823-1.61 4.522-4.523 1.65-11.44-7.721-18.6-6.333-4.84-8.069-7.63-8.116-13.055-.058-6.584 3.866-10.372 12.332-11.907 2.127-.385 6.775-2.133 10.328-3.883 6.312-3.11 6.494-3.138 7.883-1.242 1.85 2.526 1.817 8.892-.064 12.53-1.93 3.733-6.595 7.005-11.005 7.721-1.93.313-3.51.727-3.51.918 0 .192 2.057 2.245 4.57 4.562 8.586 7.914 11.646 16.131 8.902 23.908-3.253 9.22-12.923 14.875-22.885 13.38l-4.457-.668-.616 3.854c-.34 2.12-1.12 5.83-1.734 8.244-.991 3.891-.907 4.544.742 5.75 1.023.748 3.721 1.36 5.995 1.36 4.64 0 7.857 2.575 9.007 7.209 1.046 4.216 3.106 5.436 5.508 3.262 3.553-3.215 7.17-2.292 13.768 3.516 4.83 4.251 6.477 6.507 8.197 11.224 1.749 4.796 1.918 6.187.9 7.412-2.105 2.537-6.37 4.322-7.956 3.329-.792-.496-4.455-.626-8.14-.288l-6.698.614-3.786-4.217c-3.205-3.571-4.218-4.13-6.613-3.652-3.366.674-8.035-1.12-12.318-4.732-2.923-2.465-3.69-2.614-12.5-2.437-8.425.169-9.899-.083-14.4-2.46-5.837-3.083-8.562-5.823-10.98-11.04-1.127-2.43-2.676-4.023-4.375-4.5-3.05-.858-34.72-.612-36.162.28-3.19 1.971 1.236 3.56 10.63 3.815 6.314.17 9.419 1.673 9.378 4.537-.013.896-1.25 3.878-2.75 6.628-1.968 3.609-3.422 5.098-5.225 5.352-1.373.194-4.117 2.106-6.096 4.25-3.085 3.342-4.198 3.898-7.803 3.898-2.312 0-7.669-1.323-11.903-2.94-4.235-1.617-9.825-3.217-12.422-3.557-3.646-.477-5.255-1.298-7.063-3.608l-2.34-2.99-4.437 5.632c-9.849 12.5-28.324 24.342-44.383 28.449-8.986 2.298-24.609 3.226-33.494 1.99z" style="fill:#daa44b"/><path d="M183.154 364.11c-2.426-1.538-.383-7.036 3.457-9.301 1.87-1.104 3.4-2.39 3.4-2.86 0-.469 2.03-2.25 4.512-3.957 2.864-1.97 5.408-4.873 6.967-7.95 2.34-4.619 2.693-4.878 7.552-5.546 3.061-.421 6.155-1.612 7.747-2.981 2.42-2.081 2.54-2.521 1.39-5.046-.693-1.52-1.652-5.886-2.13-9.7-.48-3.815-1.034-7.098-1.232-7.296-.198-.199-2.823-.034-5.833.366-10.808 1.435-16.763-1.11-20.723-8.86-4.267-8.35-2.19-14.264 8.353-23.779 7.696-6.946 7.854-8.663.868-9.45-5.718-.645-9.36-3.15-11.843-8.148-1.48-2.978-1.646-4.267-.793-6.14l1.08-2.369 4.702 2.628c2.586 1.445 6.983 2.989 9.772 3.43 11.907 1.882 15.332 10.999 6.848 18.23-10.514 8.962-13.307 12.148-13.898 15.852-1.335 8.374 4.021 13.422 13.233 12.472 6.054-.625 9.926-2.414 17.15-7.923 6.046-4.61 15.394-8.724 19.902-8.758 4.942-.038 11.57-2.818 15.376-6.449 4.687-4.47 7.116-5.602 14.17-6.599 4.966-.702 6.686-1.51 10.295-4.837 3.151-2.905 6.291-4.577 11.51-6.132 3.947-1.175 10.539-3.908 14.648-6.072 8.302-4.372 14.148-5.087 19.774-2.417 5.19 2.463 24.032 17.938 28.2 23.161 2.116 2.652 5.303 6.488 7.082 8.526 4.791 5.488 7.405 11.294 8.416 18.695 1.263 9.248 5.691 22.766 8.424 25.715 1.264 1.364 3.044 4.052 3.957 5.975.912 1.922 3.485 4.818 5.718 6.435 3.197 2.316 3.713 3.073 2.43 3.566-2.601.998-6.686-.477-8.993-3.249-6.164-7.405-8.961-10.345-9.414-9.893-.276.277.056 1.174.737 1.995.681.821 1.793 3.42 2.47 5.774.973 3.377 2.21 4.916 5.85 7.282 5.42 3.52 5.805 4.5 1.773 4.5-3.813 0-7.725-1.723-11.832-5.21-3.893-3.307-4.468-3.37-8.005-.888-1.838 1.29-5.123 2.07-10.21 2.424-4.125.287-9.173 1.23-11.218 2.098-4.7 1.993-7.221 1.994-9.21.005-2.024-2.024-2.005-5.838.043-8.964 1.539-2.348 1.516-2.465-.468-2.465-2.514 0-2-2.22 1.386-6 1.231-1.375 2.977-3.962 3.879-5.75l1.64-3.25h-4.012c-2.206 0-6.028.54-8.493 1.199-2.466.66-4.78.9-5.146.536-.364-.365.123-2.318 1.082-4.341 2.202-4.638 3.321-12.009 1.67-10.988-.634.392-1.153 1.743-1.153 3.003s-1.353 4.158-3.006 6.441c-2.383 3.29-3.634 4.15-6.031 4.15-3.36 0-4.888 2.263-3.295 4.882 5.729 9.418 6.714 12.234 5.662 16.177-1.168 4.376-.264 5.112 2.113 1.718 2.302-3.285 1.912-6.83-1.443-13.117-1.65-3.092-3-5.886-3-6.208 0-.321 1.224-.442 2.72-.268 4.075.474 8.78 7.919 8.78 13.894 0 6.174-3.973 11.547-9.269 12.533-2.052.383-7.528 1.977-12.168 3.542-11.274 3.804-13.105 3.707-17.127-.903-1.8-2.063-4.145-3.98-5.212-4.262-2.061-.543-8.443-8.602-7.533-9.512.296-.296 2.793-.805 5.549-1.132 5.428-.642 4.91-.957 11.381 6.906 2.152 2.615 3.887 3.749 5.733 3.746 3.027-.004 8.944-3.306 9.767-5.45.906-2.36-2.409-6.787-8.242-11.006-3.011-2.177-6.466-5.552-7.677-7.5l-2.202-3.54-.5 3.5-.5 3.5-5-.269c-2.75-.148-10.4-.431-17-.63s-12.585-.415-13.3-.481c-2.28-.21-4.438-7.044-3.726-11.796.383-2.554.255-4.324-.314-4.324-.53 0-1.276 2.693-1.658 5.983-1.591 13.712-7.707 19.196-23.502 21.073-5.225.62-11.341 1.796-13.591 2.612-4.153 1.505-9.409 5.623-9.409 7.372 0 1.396 1.113 1.176 2.39-.473.61-.789 3.315-2.589 6.01-4 4.069-2.133 6.25-2.567 12.883-2.567 11.242 0 15.248-1.437 21.38-7.667 3.797-3.857 5.423-4.926 6.14-4.04 1.238 1.533-3.452 10.553-6.299 12.113-1.097.602-3.347 1.994-5 3.094-2.576 1.715-4.398 1.963-12.798 1.738l-9.795-.262-4.6 3.512c-3.866 2.952-5.409 3.512-9.683 3.512-4.655 0-5.392.337-8.74 4-2.89 3.162-4.362 3.997-7.022 3.985-1.851-.009-3.976-.403-4.723-.875zm175.416-23.543c1.512-1.116 1.676-1.701.743-2.648-.94-.954-1.757-.851-3.782.476-2.536 1.661-2.617 3.605-.152 3.605.687 0 2.123-.645 3.191-1.433zm9.441-21.885c0-3.546-5.358-11.682-7.694-11.682-.696 0-2.183 1.8-3.306 4-2.146 4.207-1.796 5.03 1.046 2.459 1.548-1.401 1.987-1.302 4.828 1.089 1.91 1.606 3.126 3.568 3.126 5.04 0 1.327.45 2.412 1 2.412s1-1.493 1-3.318zm-39.037-35.854c-1.029-3.726-3.508-6.617-4.674-5.45-.364.364.434 2.875 1.774 5.58 2.723 5.494 4.432 5.418 2.9-.13zM605.124 361c-3.348-3.663-4.085-4-8.74-4-4.275 0-5.818-.56-9.685-3.512l-4.599-3.512-9.794.262c-8.401.225-10.222-.023-12.8-1.738-1.651-1.1-3.901-2.492-5-3.094-2.845-1.56-7.536-10.58-6.298-12.112.717-.887 2.343.182 6.14 4.04 6.112 6.21 10.143 7.666 21.213 7.666 8.209 0 13.73 1.818 18.215 5.996 2.377 2.214 3.235 2.491 3.235 1.044 0-1.749-5.255-5.867-9.408-7.372-2.25-.816-8.306-1.992-13.456-2.614-16.648-2.01-21.842-6.687-23.654-21.304-.392-3.163-1.138-5.75-1.658-5.75-.55 0-.674 1.815-.298 4.324.713 4.752-1.445 11.586-3.725 11.796-.715.066-6.7.282-13.3.481-6.6.199-14.25.482-17 .63l-5 .269-.5-3.5-.5-3.5-2.203 3.54c-1.21 1.948-4.666 5.323-7.677 7.5-5.833 4.22-9.148 8.645-8.242 11.006.823 2.144 6.74 5.446 9.768 5.45 1.845.003 3.58-1.131 5.732-3.746 6.472-7.863 5.953-7.548 11.381-6.906 2.756.327 5.254.836 5.55 1.132.91.91-5.472 8.969-7.534 9.512-1.067.282-3.412 2.2-5.212 4.262-4.022 4.61-5.852 4.707-17.126.903-4.64-1.565-10.117-3.16-12.169-3.542-5.295-.986-9.269-6.359-9.269-12.533 0-5.975 4.705-13.42 8.78-13.894 1.497-.174 2.72-.053 2.72.268 0 .322-1.35 3.116-3 6.208-3.355 6.287-3.745 9.832-1.443 13.117 2.394 3.418 3.279 2.648 2.087-1.815-.75-2.813-.76-4.558-.035-5.75 4.011-6.584 6.559-12.334 6.051-13.656-.358-.934-1.807-1.556-3.622-1.556-2.398 0-3.649-.86-6.032-4.15-1.653-2.283-3.006-5.181-3.006-6.441 0-1.26-.518-2.611-1.152-3.003-1.652-1.02-.532 6.35 1.669 10.988.96 2.023 1.447 3.976 1.082 4.34-.365.365-2.68.124-5.145-.535-2.466-.66-6.288-1.199-8.494-1.199h-4.011l1.64 3.25c.902 1.788 2.647 4.375 3.879 5.75 3.386 3.78 3.899 6 1.386 6-1.985 0-2.007.117-.469 2.465 2.049 3.126 2.067 6.94.044 8.964-1.99 1.989-4.51 1.988-9.211-.005-2.045-.867-7.093-1.811-11.218-2.098-5.086-.354-8.372-1.134-10.21-2.424-3.536-2.483-4.111-2.42-8.005.888-4.106 3.487-8.018 5.21-11.832 5.21-4.032 0-3.646-.98 1.773-4.5 3.641-2.366 4.877-3.905 5.85-7.282.677-2.355 1.79-4.953 2.47-5.774.682-.82 1.013-1.718.737-1.995-.452-.452-3.25 2.488-9.414 9.893-2.306 2.772-6.391 4.247-8.993 3.249-1.283-.493-.767-1.25 2.43-3.566 2.233-1.617 4.807-4.513 5.719-6.435.912-1.923 2.692-4.611 3.956-5.975 2.733-2.949 7.162-16.467 8.425-25.716 1.01-7.4 3.624-13.206 8.416-18.694 1.779-2.038 4.966-5.874 7.081-8.526 4.168-5.223 23.01-20.698 28.2-23.16 5.626-2.67 11.472-1.956 19.774 2.416 4.11 2.164 10.701 4.897 14.648 6.072 5.22 1.555 8.359 3.227 11.51 6.132 3.604 3.322 5.332 4.135 10.266 4.833 6.968.985 10.617 2.711 14.61 6.912 3.011 3.167 8.82 5.474 16.547 6.572 5.944.845 12.345 3.773 18.49 8.458 7.054 5.376 10.963 7.17 16.98 7.79 9.212.951 14.569-4.097 13.233-12.47-.591-3.705-3.384-6.89-13.898-15.853-8.484-7.231-5.059-16.348 6.849-18.23 2.788-.441 7.185-1.985 9.772-3.43l4.701-2.628 1.08 2.37c.853 1.872.687 3.16-.792 6.139-2.483 4.997-6.125 7.503-11.844 8.148-6.985.787-6.828 2.504.869 9.45 10.542 9.515 12.62 15.429 8.352 23.78-3.96 7.748-9.915 10.294-20.723 8.859-3.01-.4-5.634-.565-5.833-.366-.198.198-.752 3.48-1.231 7.295-.479 3.815-1.438 8.18-2.13 9.701-1.151 2.525-1.03 2.965 1.39 5.046 1.592 1.37 4.685 2.56 7.747 2.98 4.858.669 5.211.928 7.552 5.547 1.559 3.077 4.102 5.98 6.967 7.95 2.481 1.707 4.511 3.488 4.511 3.957 0 .47 1.53 1.756 3.4 2.86 2.313 1.364 3.627 3.035 4.107 5.223.835 3.799-.393 4.93-5.372 4.953-2.66.012-4.132-.823-7.022-3.985zm-158.64-19.956c.325-.526-.572-1.718-1.992-2.649-2.026-1.327-2.842-1.43-3.782-.476-.934.947-.77 1.532.742 2.648 2.247 1.659 4.188 1.842 5.032.477zm-12.473-21.455c0-1.473 1.216-3.435 3.126-5.041 2.841-2.391 3.28-2.49 4.829-1.09 2.841 2.573 3.192 1.75 1.045-2.458-1.122-2.2-2.61-4-3.306-4-2.336 0-7.694 8.136-7.694 11.682 0 1.825.45 3.318 1 3.318s1-1.085 1-2.411zm41.726-42.196c-1.172-1.172-3.652 1.68-4.671 5.371-1.564 5.662-.057 5.858 2.76.359 1.424-2.78 2.284-5.358 1.911-5.73zM174.268 363.18c-.989-.628-.98-1.699.044-5.235 1.073-3.704 1.696-4.445 3.743-4.445 2.022 0 2.41.442 2.197 2.5-.384 3.711-2.325 8.002-3.612 7.985-.62-.009-1.688-.37-2.372-.805zm446.873-1.93c-.611-1.512-1.228-3.875-1.37-5.25-.214-2.058.174-2.5 2.196-2.5 2.047 0 2.67.74 3.743 4.445 1.024 3.536 1.033 4.607.044 5.235-2.213 1.405-3.478.876-4.613-1.93zm-8.567-12.329c-3.588-3.15-3.865-4.949-.754-4.888 2.27.045 6.191 3.413 6.191 5.318 0 2.852-1.867 2.704-5.437-.43zm-430.382.008c.405-2.626 4.985-5.463 7.352-4.555 1.606.616 1.5.983-1.061 3.656-3.384 3.531-6.772 4.016-6.291.899zm114.135-2.679c-.94-2.063-1.893-4.114-2.116-4.559-.223-.445 1.748-.67 4.38-.5 4.348.28 4.858.578 5.568 3.25.938 3.531-.432 5.559-3.757 5.559-1.761 0-2.8-.957-4.075-3.75zm199.842 2.44c-.667-.803-.785-2.446-.305-4.25.71-2.67 1.22-2.968 5.567-3.249 2.632-.17 4.604.055 4.38.5-.223.445-1.175 2.497-2.116 4.559-1.274 2.793-2.314 3.75-4.075 3.75-1.3 0-2.853-.59-3.45-1.31zm124.342-160.622c-19.535-3.181-34.11-12.44-40.726-25.873l-3.274-6.648-.284-38.273L575.943 79h34.068v32.265c0 32.036.017 32.298 2.375 36.75 6.309 11.916 22.087 14.664 32.368 5.638 7.015-6.16 7.21-7.32 7.235-42.903l.022-31.75h34.068l-.284 38.25-.284 38.25-2.76 5.621c-8.228 16.754-25.393 26.723-47.24 27.435-5.5.18-12.25-.04-15-.488zm-447-3.698c-21.67-3.37-40.08-20.921-47.033-44.838-1.978-6.803-1.552-19.016.994-28.487 5.365-19.96 20.442-34.353 41.54-39.66 9.029-2.27 26.97-1.492 36 1.563 13.518 4.573 23.707 13.619 29.438 26.137 3.486 7.614 5.71 19.255 5.358 28.036l-.297 7.379-38.75.262-38.75.262.022 2.738c.093 11.52 15.414 22.026 28.142 19.296 7.265-1.558 11.273-3.692 15.296-8.145l3.506-3.881 13.974 6.152 13.974 6.153-1.707 3.002c-5.423 9.537-18.148 18.683-30.77 22.115-5.912 1.608-25.227 2.804-30.937 1.916zm31.5-72.91c0-6.687-7.652-15.263-15.606-17.49-12.027-3.367-25.148 4.579-27.065 16.39l-.59 3.64H205.01v-2.54zm93 71.717c-9.865-3.31-16.367-7.326-23.583-14.568-8.29-8.32-12.573-16.332-14.873-27.817-4.314-21.538.22-38.57 13.934-52.345C285.881 76 296.862 71.48 312.9 72.225c11.252.522 18.38 2.784 27.08 8.595 3.258 2.175 6.173 3.706 6.478 3.401.305-.305.557-16.342.561-35.638.004-19.295.294-38.12.645-41.833L348.3 0h32.711v182h-35v-5.5c0-5.979-.677-6.62-3.594-3.396-8.099 8.95-31.757 14.316-44.406 10.073zm33.78-30.755c19.696-9.815 19.898-39.411.338-49.63-19.988-10.441-42.307 9.845-35.729 32.475 4.727 16.26 21.182 24.236 35.391 17.155zM706.256 93.25l.255-90.75 16.75-.274 16.75-.274V184h-34.01l.255-90.75zM766.01 93V2h34v182h-34V93zm-297.25 89.26-36.75-.285V9.837l38.75.404c33.781.351 39.455.632 44.25 2.191 17.173 5.584 25.51 13.835 30.67 30.354 2.113 6.764 2.502 9.633 2.118 15.612-.575 8.963-4.572 18.188-10.646 24.573-2.278 2.395-4.133 4.619-4.122 4.942.01.323 2.344 1.937 5.185 3.587 8.368 4.86 17.323 14.277 21.04 22.126 2.947 6.224 3.25 7.725 3.195 15.874-.075 11.152-1.67 18.044-6.193 26.764-6.267 12.08-18.304 21.005-32.61 24.179-8.843 1.961-14.014 2.132-54.887 1.816zm43.532-31.612c4.34-1.824 9.4-7.19 10.906-11.565 1.716-4.986 1.486-14.946-.43-18.583-1.953-3.709-6.232-7.754-10.455-9.884-3.76-1.897-21.752-4.05-27.974-3.35l-4.329.488v-29.46l7.25-.618c9.692-.825 15.735-3.033 19.812-7.24 3.04-3.136 3.414-4.16 3.76-10.296.474-8.375-1.88-13.77-7.54-17.29-3.488-2.167-5.046-2.377-20.032-2.703l-16.25-.353V152h21.032c15.42 0 21.891-.36 24.25-1.352zm-430.746 26.6c-1.63-2.611-10.068-15.94-18.75-29.62l-15.786-24.874v-39.61l5.75-.598c7.34-.764 15.84-3.201 20.009-5.738 10.588-6.44 11.124-24.558.99-33.456-5.709-5.012-12.416-6.75-26.249-6.805l-12-.047-.256 71.75-.257 71.75H0l.256-85.75L.51 8.5l35.5-.307c24.177-.21 37.254.062 41 .85 14.817 3.118 27.553 13.319 34.862 27.921 12.161 24.297 5.993 47.382-16.67 62.392-3.68 2.438-9.376 5.558-12.657 6.934-3.281 1.376-6.085 2.886-6.232 3.356-.146.47 10.976 16.604 24.715 35.854 13.74 19.25 24.982 35.337 24.982 35.75 0 .412-9.337.75-20.75.748l-20.75-.002-2.964-4.748z" style="fill:#ba2132"/></svg>