<svg xmlns="http://www.w3.org/2000/svg" fill="none" viewBox="0 0 210 73"><g clip-path="url(#a)"><path fill="#221F1C" d="m107.686 9.788-7.578 17.348h-4.406l7.578-17.348h4.406Zm2.21 0-7.579 17.348h4.411l7.574-17.348h-4.406Zm13.416 8.674a18.57 18.57 0 0 0-3.084-10.26A18.35 18.35 0 0 0 112.01 1.4 18.17 18.17 0 0 0 101.43.347 18.265 18.265 0 0 0 92.053 5.4a18.513 18.513 0 0 0-5.013 9.454 18.609 18.609 0 0 0 1.041 10.67 18.433 18.433 0 0 0 6.745 8.288A18.204 18.204 0 0 0 105 36.924a18.256 18.256 0 0 0 12.942-5.413 18.562 18.562 0 0 0 5.37-13.049Zm-2.275 0a16.272 16.272 0 0 1-2.7 8.986 16.071 16.071 0 0 1-7.197 5.958 15.913 15.913 0 0 1-9.266.922 15.997 15.997 0 0 1-8.213-4.425 16.215 16.215 0 0 1-4.39-8.28 16.298 16.298 0 0 1 .912-9.345A16.143 16.143 0 0 1 96.09 5.02 15.943 15.943 0 0 1 105 2.294a15.985 15.985 0 0 1 11.334 4.74 16.254 16.254 0 0 1 4.703 11.428ZM14.61 51.687a2.995 2.995 0 0 1 .517 3.06 2.926 2.926 0 0 1-1.554 1.597c-.35.15-.726.23-1.107.233H.966a.962.962 0 0 1-.682-.284.978.978 0 0 1-.284-.687v-7.87a.982.982 0 0 1 .284-.688.966.966 0 0 1 .682-.286h11.5a2.879 2.879 0 0 1 2.041.875 2.926 2.926 0 0 1 .83 2.074 2.98 2.98 0 0 1-.727 1.976Zm-1.62 1.723a.635.635 0 0 0-.182-.44.625.625 0 0 0-.434-.189H2.248v1.626h10.125a.62.62 0 0 0 .435-.185.631.631 0 0 0 .181-.44v-.372Zm0-3.819a.631.631 0 0 0-.185-.442.621.621 0 0 0-.44-.183H2.249v1.622h10.125a.62.62 0 0 0 .435-.185.631.631 0 0 0 .181-.44v-.372Zm29.184 4.816h-12.12v-6.671a.978.978 0 0 0-.281-.688.962.962 0 0 0-.68-.286h-.324a.962.962 0 0 0-.678.288.978.978 0 0 0-.28.686v7.87a.981.981 0 0 0 .587.912c.117.05.244.077.371.078h13.405a.962.962 0 0 0 .683-.285.978.978 0 0 0 .283-.689v-.24c0-.258-.1-.504-.28-.687a.962.962 0 0 0-.678-.288h-.008Zm27.81 0h-13.4a.955.955 0 0 0-.682.286.972.972 0 0 0-.28.688v.241a.977.977 0 0 0 .28.688.962.962 0 0 0 .681.286h13.41a.955.955 0 0 0 .681-.285.97.97 0 0 0 .28-.689v-.24a.976.976 0 0 0-.593-.9.955.955 0 0 0-.369-.075h-.007Zm0-3.815h-13.4a.955.955 0 0 0-.682.286.973.973 0 0 0-.28.688v.241a.978.978 0 0 0 .28.689.962.962 0 0 0 .681.285h13.41a.955.955 0 0 0 .89-.602.976.976 0 0 0 .072-.372v-.24a.976.976 0 0 0-.594-.9.955.955 0 0 0-.369-.075h-.007Zm0-3.815h-13.4a.962.962 0 0 0-.681.287.978.978 0 0 0-.282.688v.244c0 .257.102.504.282.686.18.182.425.284.68.284h13.41c.255 0 .5-.102.68-.284a.974.974 0 0 0 .281-.686v-.26a.978.978 0 0 0-.286-.677.962.962 0 0 0-.676-.282h-.007Zm83.429 7.63h-13.417a.954.954 0 0 0-.682.286.974.974 0 0 0-.28.688v.241a.97.97 0 0 0 .962.974h13.409a.954.954 0 0 0 .682-.285.974.974 0 0 0 .28-.689v-.24a.976.976 0 0 0-.275-.684.957.957 0 0 0-.672-.29h-.007Zm0-3.815h-13.417a.954.954 0 0 0-.682.286.975.975 0 0 0-.28.688v.241a.97.97 0 0 0 .962.974h13.409a.954.954 0 0 0 .682-.285.974.974 0 0 0 .28-.689v-.24a.976.976 0 0 0-.275-.684.957.957 0 0 0-.672-.29h-.007Zm0-3.815h-13.417a.961.961 0 0 0-.68.287.976.976 0 0 0-.282.688v.244c0 .257.101.504.282.686.18.182.425.284.68.284h13.409c.255 0 .5-.102.68-.284a.972.972 0 0 0 .282-.686v-.26a.98.98 0 0 0-.281-.672.963.963 0 0 0-.666-.287h-.007Zm-26.845 4.91a4.93 4.93 0 0 1-1.426 3.471 4.848 4.848 0 0 1-3.443 1.438h-9.494a.962.962 0 0 1-.683-.285.98.98 0 0 1-.283-.689v-7.886a.98.98 0 0 1 .283-.689.962.962 0 0 1 .683-.285h9.502a4.862 4.862 0 0 1 3.447 1.445 4.921 4.921 0 0 1 1.422 3.48h-.008Zm-2.171 0c0-.72-.283-1.412-.789-1.921a2.681 2.681 0 0 0-1.905-.796h-8.22v5.433h8.224a2.671 2.671 0 0 0 1.908-.794 2.733 2.733 0 0 0 .79-1.922h-.008Zm54.925 1.094h-.577l2.894 1.712c.239.125.418.341.499.6.081.26.056.54-.068.781l-.158.276a1.01 1.01 0 0 1-1.408.295l-6.193-3.664h-5.207v2.841a.98.98 0 0 1-.283.689.962.962 0 0 1-.683.285h-.316a.962.962 0 0 1-.683-.285.98.98 0 0 1-.283-.689v-7.886a.982.982 0 0 1 .284-.688.966.966 0 0 1 .682-.286h11.5a2.877 2.877 0 0 1 2.041.875 2.942 2.942 0 0 1 .83 2.074v.093a2.942 2.942 0 0 1-.82 2.092 2.9 2.9 0 0 1-2.051.885Zm-.092-2.185a.621.621 0 0 0 .439-.183.63.63 0 0 0 .184-.442v-.388a.63.63 0 0 0-.184-.442.621.621 0 0 0-.439-.183h-10.126v1.623l10.126.015Zm18.4-1.622h11.408c.255 0 .5-.102.682-.284a.978.978 0 0 0 .284-.686v-.268a.982.982 0 0 0-.284-.688.966.966 0 0 0-.682-.286h-11.5a2.877 2.877 0 0 0-2.041.875 2.942 2.942 0 0 0-.83 2.074v.093a2.942 2.942 0 0 0 .83 2.075 2.892 2.892 0 0 0 2.041.875h9.502c.165.002.323.07.439.188a.635.635 0 0 1 .181.444v.389a.632.632 0 0 1-.181.442.62.62 0 0 1-.439.183h-11.407a.962.962 0 0 0-.683.285.979.979 0 0 0-.283.689v.24a.98.98 0 0 0 .283.689.962.962 0 0 0 .683.285h11.5a2.899 2.899 0 0 0 2.042-.882 2.948 2.948 0 0 0 .829-2.079v-.07a2.938 2.938 0 0 0-.83-2.076 2.888 2.888 0 0 0-2.041-.877h-9.503a.621.621 0 0 1-.439-.183.63.63 0 0 1-.184-.442v-.388a.63.63 0 0 1 .623-.625v.008Zm-98.865-1.238a.977.977 0 0 0-.597-.898.956.956 0 0 0-.369-.072h-.316a.953.953 0 0 0-.69.278.97.97 0 0 0-.287.692v5.821l-11.354-6.683a.97.97 0 0 0-.458-.12h-.315a.956.956 0 0 0-.943.776.807.807 0 0 0-.023.194v7.851c0 .259.102.506.283.69a.962.962 0 0 0 .683.285h.315a.962.962 0 0 0 .683-.286.978.978 0 0 0 .283-.689v-5.821l11.265 6.633c.164.102.351.159.543.166h.316a.954.954 0 0 0 .683-.282.972.972 0 0 0 .283-.688l.015-7.847ZM32.095 73v-.734H28.63v-2.27h3.399v-.73h-3.402v-2.126h3.463v-.73h-4.276v6.597l4.28-.007Zm22.776 0v-2.787l2.567-3.8h-.959l-2.016 3.055-2.028-3.058h-.959l2.575 3.8v2.786l.82.004Zm26.236 0v-.734h-3.463v-2.27h3.394v-.73h-3.39v-2.126h3.463v-.73h-4.283v6.597l4.28-.007Zm25.894 0 1.867-6.598h-.908l-1.447 5.5-1.498-5.488h-.677l-1.497 5.487-1.447-5.487h-.901l1.859 6.597h.881l1.44-5.313 1.455 5.302h.873Zm25.54 0v-.734h-3.464v-2.27h3.399v-.73h-3.399v-2.126h3.464v-.73h-4.279v6.597l4.279-.007Zm25.656 0-2.625-6.598h-1.009l-2.632 6.598h.931l.578-1.471h3.248l.577 1.47h.932Zm-1.744-2.193h-2.767l1.378-3.555 1.389 3.555Zm25.879 2.193-1.763-2.686c.477-.029.923-.247 1.242-.606.318-.359.483-.83.459-1.311 0-1.215-.858-1.983-2.055-1.983h-2.621v6.597h.812v-2.615h1.313l1.654 2.615.959-.011Zm-2.213-3.338h-1.713v-2.522h1.713a1.204 1.204 0 0 1 .933.332c.123.118.221.26.287.42.065.158.096.33.092.501a1.245 1.245 0 0 1-.812 1.198 1.224 1.224 0 0 1-.504.071h.004Z"/></g><defs><clipPath id="a"><path fill="#fff" d="M0 0h210v73H0z"/></clipPath></defs></svg>