<svg xmlns="http://www.w3.org/2000/svg" xml:space="preserve" style="enable-background:new 0 0 237 148" version="1.0" viewBox="0 0 237 148"><path d="m49.7 78.7-3.2-3.5h2.6c.7 0 1.4.3 1.9.8l3.7 4.2c2.3 2.7 4.9 5.1 7.7 7.1-5.4-.4-8.8-4.3-12.7-8.6m-6.8 0-3.1-3.5h2.6c.7 0 1.4.3 1.9.8l3.9 4.2c2.3 2.6 4.9 5.5 7.5 7.1-5.6-.4-7.9-3.2-12.8-8.6m-6.9 0-3.3-3.5h2.6c.7 0 1.4.3 1.9.8l3.9 4.2c2 2.4 4.3 4.7 6.8 6.7-5.1-.8-6.9-2.8-11.9-8.2m0-9.4c4.9-5.5 6.8-7.5 11.9-8.2-2.5 1.9-4.8 4.2-6.8 6.7L37.3 72c-.5.5-1.2.8-1.9.8h-2.6l3.2-3.5zm11.9-1.5L44.2 72c-.5.5-1.2.8-1.9.8h-2.6l3.2-3.5c4.9-5.5 7.4-8.3 12.5-8.8-2.5 1.7-5.2 4.7-7.5 7.3m14.5-7.3c-2.8 2.1-5.4 4.5-7.7 7.1L51 71.8c-.5.5-1.2.8-1.9.8h-2.6l3.2-3.5c4-4.1 7.3-8.1 12.7-8.6m7.3 26.4c-6.1 0-9.7-4.4-13.2-8.2L52.3 74v-.1l4.1-4.6c3.5-3.7 7.2-8.2 13.1-8.2h.1c.6 0 1.1-.4 1.2-1V60c.1-.5-.3-1.1-.8-1.2h-.4c-18.2-1.2-25.9-1.5-31.1 4.3l-9.1 10.2c-.3.2-.4.4-.4.7 0 .2.1.5.2.7l9.1 10.2c5.3 5.8 13.1 5.5 31.3 4.4.6 0 1.1-.4 1.2-1v-.1c.1-.5-.3-1.1-.8-1.2-.1-.1-.1-.1-.3-.1" style="fill:#76bf43"/><path d="M91.6 80.4v.1l-.3.3c-1.7 1.7-4 2.6-6.3 2.6-5.2 0-9.3-4.2-9.3-9.3 0-5.2 4.2-9.3 9.3-9.3 2.3-.1 4.6.8 6.3 2.4.1 0 .2.1.3.3l.1.1-.1.1-.3.3-1.2 1.2c-.1.1-.2.2-.3.2-.2 0-.3-.1-.5-.2-1.2-1-2.7-1.6-4.3-1.6-3.6 0-6.5 2.9-6.5 6.5s2.9 6.5 6.5 6.5c1.6 0 3.1-.6 4.3-1.6.2-.2.6-.2.8 0l1.2 1.2s.2 0 .3.2M120.2 73.8v-4.7c0-.7.6-1.3 1.3-1.3h3.2c1.4.1 2.6 1.1 3 2.5.1.9-.1 1.8-.7 2.4-.6.6-1.4 1-2.2 1l-4.6.1zm6.7 2c2.2-.8 3.7-2.9 3.7-5.2 0-3.1-2.5-5.6-5.7-5.6h-4.1c-2 0-3.6 1.6-3.6 3.6v14.5h2.3c.3 0 .6-.2.6-.5v-6.5h3.7l3.4 6.8c.1.1.2.3.5.3h3l-3.8-7.4zM136.8 65.6v17.6h2.3c.3 0 .6-.2.6-.5V65h-2.3c-.4 0-.6.3-.6.6M160.7 65h-2.2c-.3 0-.6.2-.6.5V76.3c.1 2.3-1.6 4.3-3.9 4.4h-.3c-2.4 0-4.1-1.9-4.1-4.4V65.7c0-.3-.2-.6-.5-.6h-2.4v11.4c0 3.9 3.2 7.1 7.1 7.1 3.9 0 7.1-3.2 7.1-7.1V65.1h-.2V65zM101.2 76.1 104 69l2.8 7.1h-5.6zm4.5-10.8c-.1-.2-.2-.3-.5-.3h-2.5c-.2 0-.5.1-.5.3l-6.9 17.9h2.4c.4 0 .8-.2.9-.6l1.5-3.8h7.7l1.5 3.8c.1.4.5.6.9.6h2.4l-6.9-17.9zM196.2 76.1 199 69l2.8 7.1h-5.6zm4.6-10.8c-.1-.2-.2-.3-.5-.3h-2.4c-.2 0-.5.1-.5.3l-6.9 17.9h2.4c.4 0 .8-.2.9-.6l1.5-3.8h7.7l1.5 3.8c.2.4.5.6.9.6h2.4l-7-17.9zM167.5 83.2h2.7c.2 0 .3-.2.4-.3V65h-2.9v18.2h-.2zM185.5 83.2h-2.7c-.2 0-.3-.2-.4-.3V65h2.9v18.2h.2z"/><path d="M183.9 65h-2.3c-.4 0-.7.3-.9.6l-4.3 13.1-4.4-13.1c-.2-.4-.5-.6-.9-.6h-2.3l5.8 17.8c.1.2.3.4.6.5h2c.3 0 .5-.2.6-.5l6.1-17.8z"/><path d="M22 53h193v42H22z" style="fill:none"/></svg>