<?xml version="1.0" standalone="no"?>
<!DOCTYPE svg PUBLIC "-//W3C//DTD SVG 20010904//EN"
 "http://www.w3.org/TR/2001/REC-SVG-20010904/DTD/svg10.dtd">
<svg version="1.0" xmlns="http://www.w3.org/2000/svg"
 width="1414.000000pt" height="1414.000000pt" viewBox="0 0 1414.000000 1414.000000"
 preserveAspectRatio="xMidYMid meet">
<metadata>
Created by potrace 1.14, written by Peter Selinger 2001-2017
</metadata>
<g transform="translate(0.000000,1414.000000) scale(0.100000,-0.100000)"
fill="#000000" stroke="none">
<path d="M11875 10843 c-39 -8 -108 -12 -155 -10 -74 4 -130 -1 -230 -18 -34
-6 -452 -6 -515 0 -276 27 -336 27 -420 7 -62 -15 -108 -19 -205 -16 -186 4
-417 4 -485 0 -33 -2 -93 2 -133 9 -40 7 -90 10 -110 6 -20 -3 -86 -5 -147 -4
-60 1 -171 2 -245 2 -449 -1 -611 0 -746 4 -115 3 -160 1 -190 -10 -57 -21
-141 -23 -204 -7 -47 13 -69 13 -150 2 -52 -7 -102 -12 -110 -11 -92 12 -355
17 -371 8 -6 -4 -77 -9 -157 -12 -170 -5 -215 -8 -228 -15 -5 -3 -40 -3 -79
-1 -127 7 -435 9 -435 3 0 -4 -10 -6 -22 -4 -13 1 -23 3 -23 4 0 4 -98 8 -205
9 -102 1 -185 -3 -245 -13 -11 -2 -24 -1 -29 2 -6 3 -19 6 -30 7 -12 1 -50 5
-86 9 -97 11 -181 13 -220 5 -149 -32 -179 -35 -365 -32 -204 2 -271 6 -281
16 -4 4 -13 2 -21 -4 -7 -6 -13 -8 -13 -3 0 5 -36 9 -80 9 -44 0 -80 -3 -80
-7 0 -5 -23 -4 -40 2 -3 1 -9 1 -15 0 -13 -3 -237 -11 -330 -13 -38 0 -92 3
-120 8 -58 9 -446 10 -490 1 -16 -4 -42 -9 -57 -12 -96 -19 36 -31 257 -22 33
1 87 -2 120 -6 123 -15 220 -15 305 1 103 19 88 19 182 -1 68 -14 84 -14 138
-2 33 8 60 12 60 10 0 -3 8 0 19 5 13 8 48 4 122 -10 101 -21 121 -22 394 -17
39 0 126 0 195 -1 69 -1 171 0 227 3 56 3 115 1 130 -4 76 -26 216 -28 346 -6
53 9 114 15 135 12 20 -3 69 -8 107 -11 39 -4 88 -9 110 -12 54 -7 51 -7 125
2 36 5 88 8 115 7 67 -1 195 -1 275 1 36 0 83 -3 105 -8 22 -4 121 -9 220 -10
99 -1 212 -6 250 -11 68 -9 122 -9 515 0 102 2 189 1 195 -2 5 -3 30 -7 55 -9
25 -1 65 -5 90 -8 92 -12 505 -5 650 10 88 10 313 12 337 3 13 -4 25 -3 28 3
4 5 11 6 17 3 6 -4 33 -8 62 -10 99 -6 199 -19 254 -34 18 -5 43 -7 55 -4 93
19 367 23 367 5 0 -12 128 -11 221 2 103 14 298 14 323 0 8 -4 48 -6 88 -2 87
7 468 3 518 -6 19 -3 49 -10 66 -16 24 -7 54 -5 121 10 50 11 101 18 114 15
13 -3 38 -7 54 -8 107 -13 133 -17 155 -21 36 -7 121 -7 150 0 56 13 122 15
162 4 25 -7 119 -12 225 -13 100 -1 184 -4 188 -7 3 -4 23 -3 43 1 88 19 151
20 220 5 l70 -16 8 -62 c4 -34 8 -145 9 -247 1 -102 5 -203 10 -225 5 -22 9
-83 7 -135 -5 -249 -5 -317 1 -344 21 -96 27 -323 12 -466 -10 -95 -10 -159 0
-210 5 -25 9 -72 8 -105 0 -33 -2 -100 -3 -150 -2 -95 7 -300 17 -350 6 -35
12 -410 14 -935 1 -201 4 -369 7 -375 8 -12 15 -70 15 -120 1 -44 -11 -146
-17 -152 -2 -2 3 -25 11 -51 29 -92 31 -137 20 -363 -3 -51 1 -114 9 -155 15
-73 18 -245 6 -317 -7 -42 -7 -88 0 -362 3 -82 1 -163 -2 -180 -6 -28 -4 -46
15 -145 9 -51 13 -89 14 -145 1 -52 17 -53 22 0 2 17 6 35 9 40 8 12 5 96 -5
150 -4 22 -8 51 -8 65 -1 35 13 153 19 162 3 4 2 14 -3 21 -4 6 -8 21 -9 32 0
11 -6 37 -13 59 -13 37 -11 96 5 206 4 25 6 113 5 195 -5 325 -4 372 3 415 11
60 10 86 -5 140 -12 44 -14 111 -9 235 2 56 2 151 1 340 -1 93 -1 601 0 660 0
52 -11 440 -14 485 -2 19 2 62 8 95 6 33 10 80 9 105 -6 141 -6 170 1 220 10
72 10 92 -5 179 -11 66 -9 131 7 210 11 52 8 706 -3 771 -6 36 -9 83 -7 105
10 94 9 321 -2 388 -11 76 -11 177 0 417 l8 145 -154 3 c-404 6 -536 6 -564
-1 -52 -15 -138 -15 -203 -2 -35 8 -74 12 -85 9 -28 -5 -106 -16 -132 -19 -11
-1 -38 2 -60 7 -95 22 -123 23 -190 11z"/>
<path d="M3175 10770 c-32 -8 -32 -9 35 -17 54 -7 71 -7 130 -4 44 3 44 3 15
12 -41 13 -143 18 -180 9z"/>
<path d="M3498 10762 c-43 -2 -78 -6 -78 -10 0 -8 218 -7 226 1 8 8 -64 12
-148 9z"/>
<path d="M3660 10756 c0 -2 9 -6 20 -9 11 -3 18 -1 14 4 -5 9 -34 13 -34 5z"/>
<path d="M6214 10211 c-29 -10 -60 -16 -70 -14 -31 5 -177 4 -208 -2 -16 -3
-45 -13 -65 -21 -20 -9 -63 -20 -96 -25 -33 -5 -93 -26 -134 -45 -41 -20 -84
-38 -95 -39 -53 -9 -79 -17 -93 -30 -8 -8 -18 -15 -22 -15 -4 0 -16 -8 -27
-17 -10 -10 -43 -29 -73 -43 -30 -14 -79 -44 -110 -67 -30 -23 -59 -39 -63
-37 -5 3 -8 1 -8 -4 0 -5 -14 -15 -30 -22 -17 -7 -52 -35 -78 -63 -26 -27 -61
-65 -79 -83 -18 -18 -52 -64 -77 -103 -25 -38 -68 -98 -96 -133 -67 -82 -158
-272 -166 -346 -3 -30 -12 -73 -20 -95 -50 -141 -64 -257 -46 -365 9 -54 9
-96 -2 -199 -14 -130 -17 -159 -21 -183 -2 -14 -7 -50 -10 -80 -4 -29 -7 -56
-8 -60 0 -3 2 -18 6 -35 4 -16 10 -41 13 -55 8 -35 8 -145 -1 -210 -4 -30 -7
-68 -6 -85 0 -16 0 -91 0 -165 -1 -253 -1 -345 3 -565 3 -121 0 -238 -5 -260
-13 -53 -15 -155 -4 -155 5 0 4 -6 -2 -13 -6 -8 -9 -16 -6 -18 7 -7 15 -91 21
-214 6 -137 5 -164 -5 -218 -8 -45 -6 -309 3 -362 5 -29 18 -149 19 -170 0 -5
-4 -32 -9 -60 -13 -82 -8 -195 13 -255 14 -38 19 -75 17 -120 -3 -67 10 -161
28 -194 5 -10 11 -26 13 -35 11 -52 136 -396 145 -399 5 -2 10 -8 10 -13 0 -9
10 -22 58 -77 13 -15 42 -54 64 -86 84 -122 147 -184 289 -288 92 -67 290
-172 344 -184 11 -2 36 -7 55 -10 19 -4 40 -9 45 -13 6 -3 12 -6 15 -6 3 -1
23 -9 45 -19 22 -10 58 -25 80 -33 22 -9 45 -19 50 -23 6 -5 46 -8 90 -8 44
-1 91 -3 105 -7 14 -3 36 -8 49 -11 13 -3 32 -9 43 -15 10 -5 18 -7 18 -4 0 3
12 -1 28 -8 19 -10 36 -11 57 -5 26 8 111 13 335 22 30 1 58 -3 62 -9 5 -7 8
-6 8 1 0 7 14 9 38 7 56 -6 153 -6 190 0 19 3 85 22 148 42 62 20 118 33 124
30 5 -3 10 -2 10 3 0 5 6 9 13 9 48 1 99 19 142 48 28 20 61 37 74 40 12 2 31
7 41 10 10 3 28 8 39 10 20 4 83 46 134 91 43 37 166 124 175 124 7 0 12 4 12
10 0 5 14 17 30 25 45 23 119 103 147 159 14 27 41 67 61 88 43 46 61 76 62
101 0 9 5 17 10 17 6 0 10 7 10 16 0 9 13 40 29 68 26 46 56 115 66 156 2 8 4
15 5 15 1 0 3 11 6 24 8 47 35 131 43 136 5 2 9 40 10 84 2 82 8 128 18 144 4
6 8 44 9 86 2 42 6 132 9 201 2 69 7 139 11 155 8 39 11 286 4 290 -4 2 -5 30
-4 62 5 90 5 265 0 299 -2 18 2 64 9 104 12 71 12 193 -1 260 -3 19 -6 69 -5
110 0 41 0 109 0 150 -2 174 0 247 5 286 9 61 10 204 1 244 -10 47 -10 77 -1
125 4 22 7 67 7 100 -4 324 -9 474 -15 495 -4 14 -9 45 -11 70 -10 103 -18
217 -17 250 5 279 -3 449 -24 510 -3 8 -8 26 -10 39 -3 14 -20 52 -39 85 -19
34 -37 81 -41 106 -4 25 -15 63 -25 84 -11 22 -19 45 -19 51 0 7 -22 42 -50
78 -27 36 -50 71 -50 77 0 5 -4 10 -10 10 -5 0 -10 7 -10 15 0 8 -4 15 -10 15
-5 0 -10 6 -10 13 0 32 -313 327 -367 346 -61 22 -126 52 -155 73 -16 11 -28
16 -28 13 0 -4 -18 8 -40 25 -22 17 -40 28 -40 24 0 -4 -8 0 -17 8 -15 12 -37
24 -63 33 -3 1 -18 7 -33 13 -16 7 -34 12 -40 12 -7 0 -48 10 -92 21 -136 35
-205 49 -205 41 0 -2 -7 1 -15 8 -8 7 -15 10 -15 7 0 -3 -17 -1 -37 4 -94 21
-148 24 -368 19 -38 -1 -86 3 -105 9 -45 14 -54 13 -116 -8z m254 -1047 c32
-9 65 -26 75 -38 10 -12 29 -33 41 -47 22 -25 58 -112 63 -154 12 -99 20 -338
14 -405 -3 -29 3 -75 9 -75 2 0 9 -41 11 -60 1 -5 -1 -23 -4 -40 -8 -44 -12
-124 -6 -129 3 -3 3 -68 1 -143 -8 -283 -6 -359 11 -448 3 -11 2 -24 -1 -29
-2 -5 -6 -83 -7 -175 -2 -91 -7 -182 -12 -201 -5 -19 -8 -44 -7 -55 0 -11 5
-60 9 -110 4 -49 9 -146 11 -215 3 -69 5 -129 5 -135 0 -5 -3 -21 -6 -35 -4
-14 -9 -72 -11 -130 -2 -58 -4 -107 -5 -110 -2 -13 3 -114 7 -134 11 -52 11
-232 0 -245 -13 -16 -14 -167 -2 -226 5 -22 8 -67 6 -100 -2 -59 -2 -118 1
-360 2 -114 -15 -265 -29 -265 -4 0 -7 -10 -8 -22 -1 -41 -16 -131 -25 -155
-5 -13 -18 -33 -29 -45 -11 -12 -20 -29 -20 -39 0 -14 -12 -21 -60 -34 -49
-12 -104 -13 -150 0 -44 11 -64 24 -102 65 -27 28 -48 54 -49 58 -3 31 -10 69
-15 81 -3 8 -7 53 -9 100 -2 48 -7 97 -10 111 -6 26 -15 146 -18 260 -1 36 2
92 7 125 11 79 11 113 1 155 -15 59 -8 228 10 274 5 11 1 39 -8 69 -21 64 -19
433 2 482 13 29 16 143 5 215 -10 66 -11 205 -3 228 6 14 5 22 -2 22 -8 0 -7
5 1 15 12 14 11 37 -6 100 -10 40 -6 116 7 140 7 11 5 57 -7 160 -10 87 -10
193 1 265 9 67 10 206 1 240 -9 34 -9 77 -1 125 8 52 9 54 1 90 -3 17 -6 66
-6 110 2 164 2 192 1 270 -1 91 3 136 11 150 3 6 4 19 2 30 -4 21 -6 119 -3
148 1 9 6 17 10 17 5 0 6 7 3 15 -4 8 -2 15 4 15 6 0 9 8 7 18 -1 9 1 22 6 28
5 6 11 21 13 35 3 13 5 26 6 29 2 3 2 8 2 11 -2 17 99 99 129 104 18 3 35 8
38 11 8 8 32 4 89 -12z"/>
<path d="M855 10129 c-4 -6 -5 -12 -2 -15 2 -3 7 2 10 11 7 17 1 20 -8 4z"/>
<path d="M9661 10104 c-28 -8 -96 -13 -185 -12 -78 0 -168 0 -201 -1 -33 -1
-73 1 -90 5 -26 7 -148 9 -256 5 -38 -1 -39 -2 -53 -81 -1 -3 -4 -9 -7 -15 -4
-5 -5 -57 -3 -115 6 -145 5 -190 -5 -227 -5 -18 -5 -33 -1 -35 22 -8 30 -131
13 -211 -11 -52 -11 -306 1 -347 9 -33 5 -494 -6 -845 -1 -22 2 -62 6 -90 13
-90 16 -269 5 -305 -12 -41 -14 -171 -2 -179 11 -7 9 -435 -2 -516 -11 -77 -9
-148 3 -172 6 -11 8 -50 5 -88 -3 -39 -5 -79 -4 -90 1 -47 2 -165 3 -220 0
-33 0 -94 0 -135 0 -41 -3 -127 -7 -190 -9 -142 -9 -216 0 -300 4 -36 6 -83 5
-105 -3 -57 -3 -214 2 -400 2 -88 1 -172 -3 -187 -4 -16 -3 -30 2 -34 7 -4 7
-10 0 -18 -5 -6 -7 -42 -4 -81 7 -102 7 -262 -1 -325 -10 -83 -15 -260 -8
-260 14 0 19 -104 8 -150 -14 -56 -5 -505 10 -520 5 -5 80 -10 167 -11 86 -2
157 -6 157 -11 0 -5 8 -5 18 -1 20 10 64 9 81 -1 6 -4 11 -2 11 4 0 6 5 8 12
4 17 -11 171 -4 298 12 56 8 53 8 125 0 65 -7 580 -10 605 -4 8 2 20 6 25 9 6
4 17 5 25 3 120 -24 160 -30 170 -24 6 4 37 6 68 4 127 -7 259 -3 367 12 33 5
83 7 110 6 73 -3 160 -3 335 1 114 3 165 9 194 21 40 17 55 20 141 31 28 3 66
9 85 12 19 3 49 6 65 8 17 1 37 5 45 8 8 3 22 5 30 5 24 -1 40 5 103 40 32 17
63 32 68 32 5 0 9 5 9 10 0 6 7 10 15 10 8 0 15 5 15 10 0 6 7 10 15 10 8 0
15 5 15 10 0 6 5 10 11 10 20 0 166 160 199 219 8 14 18 28 21 31 15 12 99
170 103 194 3 14 8 31 12 38 4 6 9 53 11 102 2 79 8 131 13 131 1 0 3 9 4 20
9 65 17 113 22 135 4 14 8 115 10 225 5 272 5 268 4 370 0 50 0 108 1 130 1
22 1 58 0 80 -1 22 -1 143 -1 270 0 132 -5 247 -11 270 -6 22 -12 47 -14 55
-2 8 -8 27 -14 43 -6 15 -8 27 -5 27 4 0 1 7 -6 15 -6 8 -13 24 -15 37 -4 31
-15 100 -18 118 -1 8 -18 37 -36 64 -19 27 -34 55 -34 63 0 7 -4 13 -8 13 -4
0 -6 8 -4 18 4 26 -20 66 -60 98 -21 16 -44 38 -53 48 -40 45 -84 82 -119 101
-21 10 -46 26 -55 34 -10 8 -18 10 -18 5 0 -5 -4 -4 -8 1 -4 6 -23 19 -42 29
-19 11 -52 32 -72 48 -28 22 -52 31 -95 34 -37 4 -77 16 -109 34 -28 15 -70
31 -94 35 -45 8 -43 25 3 30 14 2 34 8 46 14 11 7 21 10 21 7 0 -3 26 4 58 15
31 11 64 22 72 24 8 2 33 11 55 19 22 8 47 15 56 16 18 0 119 65 131 84 5 7 8
7 8 1 0 -6 3 -6 8 0 4 6 32 29 62 50 59 43 107 92 129 134 8 14 19 29 25 33 6
4 11 11 12 15 0 4 8 32 17 62 9 30 19 73 22 95 9 67 23 123 34 141 3 6 6 46 7
90 0 44 4 114 9 155 11 94 11 251 0 310 -10 54 -10 62 -2 121 5 30 2 63 -9
100 -9 30 -17 59 -19 64 -1 6 -5 21 -8 35 -9 33 -17 91 -22 165 -5 68 -12 132
-17 155 -2 9 -26 61 -53 115 -27 55 -50 105 -52 110 -12 59 -50 135 -84 168
-22 21 -55 61 -73 90 -38 58 -73 92 -161 155 -100 71 -136 93 -189 114 -28 11
-80 34 -116 51 -36 17 -74 32 -85 33 -46 5 -102 13 -130 18 -33 7 -99 18 -102
18 -2 0 -35 9 -75 19 -40 11 -77 21 -83 22 -5 2 -15 6 -21 10 -7 4 -49 9 -95
12 -46 3 -102 8 -124 11 -60 9 -193 7 -250 -3 -36 -6 -61 -5 -90 5 -38 13 -81
12 -135 -2 -33 -9 -162 -15 -175 -8 -27 16 -113 20 -165 8 -42 -9 -312 -11
-355 -2 -16 4 -50 9 -75 12 -25 3 -54 7 -65 8 -11 2 -40 -2 -64 -10z m1047
-1094 c24 -5 47 -8 53 -5 5 4 9 3 9 -2 0 -4 18 -9 40 -10 46 -3 130 -54 137
-84 3 -11 9 -19 13 -19 7 0 60 -104 65 -129 2 -9 4 -18 5 -21 1 -3 1 -25 0
-50 0 -25 5 -73 13 -106 14 -60 15 -263 1 -285 -9 -15 -15 -67 -19 -164 -2
-49 -7 -117 -11 -150 -4 -33 -8 -75 -8 -92 -1 -18 -3 -33 -6 -33 -3 0 -6 -15
-6 -32 -2 -68 -5 -75 -31 -89 -16 -8 -62 -35 -104 -60 l-75 -46 -100 3 c-161
5 -162 5 -170 39 -3 16 -8 37 -11 45 -3 12 -5 99 -3 160 0 8 -1 43 -2 78 -2
34 -1 62 3 62 3 0 5 10 6 23 2 49 9 103 14 112 7 13 3 80 -7 125 -10 41 -5
713 5 750 2 8 137 -6 189 -20z m-98 -2344 c25 -3 68 -10 95 -16 28 -6 74 -11
104 -11 38 0 70 -8 105 -26 28 -14 52 -27 54 -28 2 -2 13 -38 24 -81 11 -43
23 -83 26 -89 4 -5 7 -14 8 -20 1 -5 5 -23 9 -40 3 -16 6 -37 5 -45 -2 -28 0
-205 4 -355 7 -236 6 -309 -6 -321 -4 -4 -4 -14 1 -23 19 -41 18 -288 -3 -341
-3 -8 -11 -28 -17 -45 -7 -16 -13 -32 -14 -35 -4 -11 -19 -47 -36 -87 -11 -23
-19 -46 -19 -50 0 -14 -110 -61 -220 -96 -130 -41 -192 -40 -209 1 -23 61 -34
223 -16 252 3 6 9 22 11 36 3 15 5 29 6 33 1 3 -4 25 -11 49 -12 43 -17 314
-6 362 5 24 15 107 19 160 1 14 -3 44 -10 68 -7 23 -11 42 -8 42 3 0 0 8 -5
19 -6 10 -7 21 -4 25 7 6 12 221 15 531 1 72 5 133 11 136 5 4 17 5 26 3 9 -2
36 -6 61 -8z"/>
<path d="M849 10073 c-2 -34 -2 -113 0 -131 0 -7 5 -11 10 -8 12 8 14 153 2
161 -7 4 -12 -5 -12 -22z"/>
<path d="M3881 10080 c-30 -11 -57 -17 -62 -15 -4 3 -10 1 -13 -4 -6 -10 -386
-11 -386 -1 0 8 -73 5 -110 -5 -25 -6 -99 -6 -345 1 -206 6 -625 7 -631 2 -3
-4 -11 -126 -14 -233 -1 -5 2 -26 5 -45 11 -66 11 -175 0 -235 -11 -62 -11
-84 -1 -145 11 -62 15 -523 5 -570 -15 -76 -17 -95 -8 -106 13 -16 19 -113 8
-120 -5 -3 -7 -9 -4 -13 2 -5 0 -23 -5 -40 -6 -21 -5 -42 1 -59 15 -39 12
-192 -3 -192 -5 0 -5 -8 0 -17 5 -10 7 -56 5 -103 -7 -132 -7 -302 1 -330 4
-14 6 -65 6 -115 -2 -162 -1 -199 3 -298 3 -60 0 -116 -7 -145 -12 -43 -12
-93 -2 -302 1 -36 -1 -70 -5 -75 -4 -6 -4 -17 1 -25 4 -7 4 -24 -1 -37 -5 -12
-5 -23 0 -23 5 0 5 -18 1 -40 -4 -22 -5 -42 -1 -45 9 -10 12 -54 10 -205 -1
-131 -4 -215 -9 -215 -8 0 -6 -59 4 -95 18 -62 20 -169 5 -238 -7 -31 -12 -60
-11 -63 0 -3 4 -26 7 -50 3 -24 7 -53 9 -64 2 -11 -2 -42 -8 -70 -12 -54 -13
-185 -1 -225 15 -51 12 -182 -6 -249 -9 -36 -20 -91 -24 -122 -5 -39 -15 -65
-32 -85 -14 -16 -32 -38 -42 -50 -9 -11 -43 -35 -76 -54 l-60 -33 -180 -2
-180 -1 -2 -120 c0 -65 -2 -121 -3 -124 -16 -44 -26 -480 -14 -600 4 -41 8
-112 8 -157 l1 -81 65 0 c36 0 67 -1 70 -2 3 -1 21 -3 40 -5 19 -1 64 -6 100
-10 73 -8 74 -8 115 0 17 3 48 8 70 10 22 2 40 4 40 5 0 7 79 5 117 -2 62 -12
350 -16 413 -6 74 12 133 18 200 19 33 0 64 3 70 7 17 10 47 14 130 16 90 2
124 12 245 69 47 22 89 40 95 42 5 1 23 7 38 13 16 7 32 12 37 12 5 0 54 45
108 99 87 87 106 112 155 209 55 108 70 151 82 226 3 22 13 65 22 95 10 31 18
88 20 126 2 64 10 304 14 465 2 65 -2 100 -19 155 -5 17 -8 39 -6 50 1 11 5
45 8 75 3 30 9 66 12 80 3 14 5 54 4 90 -3 82 -3 122 0 185 2 28 -1 73 -6 100
-4 28 -7 97 -5 155 6 224 2 344 -13 368 -2 4 3 41 12 82 14 60 16 92 9 160
-12 116 -13 159 -3 200 4 19 8 49 8 65 0 29 -12 600 -14 715 -1 30 2 102 7
160 9 115 11 282 3 296 -3 5 -6 106 -6 224 -1 118 -3 226 -5 240 -2 14 1 57 8
95 6 39 8 84 4 102 -4 18 -5 65 -2 105 3 40 4 82 4 93 0 11 -3 139 -6 285 -10
490 -14 655 -16 670 -1 8 1 39 5 68 3 28 2 52 -2 52 -4 -1 -31 -9 -61 -20z"/>
<path d="M849 9843 c-1 -21 -3 -101 -4 -178 -2 -77 -4 -142 -5 -145 -1 -3 -1
-9 0 -15 1 -5 3 -31 5 -58 2 -27 7 -76 11 -110 11 -104 12 -119 13 -211 1 -93
5 -105 15 -46 4 19 10 51 14 70 5 19 5 55 0 79 -18 101 -31 298 -31 499 0 83
-4 152 -8 152 -5 0 -10 -17 -10 -37z"/>
<path d="M858 8958 c0 -13 -2 -27 -3 -33 -2 -5 -4 -14 -5 -20 -1 -5 -2 -14 -1
-18 1 -4 -3 -16 -9 -27 -7 -13 -7 -21 0 -25 6 -4 10 -12 8 -18 -1 -7 2 -41 7
-77 5 -36 8 -67 8 -70 -18 -87 -20 -213 -4 -218 6 -2 9 -7 6 -11 -2 -4 1 -25
7 -47 6 -21 10 -43 9 -49 -3 -10 -8 -49 -15 -125 -2 -19 -5 -35 -6 -35 -7 0
-12 -223 -5 -270 12 -87 15 -235 4 -285 -17 -80 -14 -130 12 -231 5 -19 6 -62
2 -95 -5 -49 -6 -237 -2 -619 1 -131 1 -234 -1 -315 -3 -160 5 -590 13 -624 2
-10 -1 -42 -6 -70 -7 -42 -13 -187 -18 -451 0 -22 3 -60 8 -85 9 -56 9 -97 -2
-180 -11 -89 -13 -735 -2 -785 4 -22 8 -65 7 -95 -6 -289 -3 -451 8 -474 7
-12 5 -159 -4 -316 -4 -74 -7 -146 -8 -160 l-1 -25 105 -1 c58 -1 155 -4 215
-8 189 -10 347 -8 415 7 67 14 98 14 160 1 19 -4 67 -6 105 -5 189 6 257 3
282 -12 6 -4 19 -5 30 -3 65 13 143 19 258 21 72 1 152 7 179 12 49 11 556 10
621 -1 17 -3 68 -8 115 -11 47 -3 99 -7 115 -8 17 -1 66 7 110 18 53 14 103
20 150 18 111 -4 538 -5 559 0 10 2 53 -3 95 -10 49 -9 97 -11 136 -6 33 4
101 6 150 4 142 -4 312 -5 415 -2 52 2 232 1 400 -2 197 -4 321 -2 350 4 25 6
50 12 55 13 6 1 16 5 23 9 11 8 37 6 102 -8 77 -16 95 -19 100 -18 64 16 223
20 435 12 44 -2 107 1 140 5 33 5 121 10 195 13 168 5 180 6 180 13 0 3 14 5
30 5 17 0 30 -4 30 -9 0 -5 6 -3 13 3 8 6 16 8 20 5 5 -5 181 -16 262 -16 53
-1 163 10 173 16 5 3 12 3 15 -1 16 -15 287 -21 397 -8 81 9 66 10 180 -11 72
-12 290 -9 290 6 0 3 10 6 23 6 12 1 38 5 57 9 48 10 372 10 450 0 80 -10 213
-10 485 0 116 4 215 7 220 7 6 1 28 -3 50 -7 52 -11 468 -12 520 -1 42 8 70
25 44 27 -7 1 -32 3 -54 6 -22 2 -58 3 -80 2 -109 -4 -217 -2 -280 5 -120 13
-197 12 -275 -5 -79 -17 -86 -17 -159 1 -80 19 -86 19 -162 1 -83 -19 -108
-20 -189 -2 -110 23 -213 29 -310 17 -70 -9 -123 -9 -185 -1 -69 9 -283 4
-372 -9 -10 -2 -44 3 -76 11 -32 7 -62 11 -67 8 -5 -3 -11 -1 -14 3 -6 10
-193 7 -251 -4 -53 -11 -202 -10 -295 1 -41 5 -100 9 -130 8 -185 -6 -543 -5
-590 1 -30 5 -140 10 -245 12 -197 4 -233 6 -250 15 -12 7 -210 3 -325 -6
-115 -8 -254 -9 -315 0 -152 21 -462 37 -480 25 -5 -4 -66 -7 -135 -7 -69 -1
-150 -4 -180 -9 -66 -10 -416 -9 -515 1 -38 4 -110 15 -160 24 -76 14 -101 15
-160 5 -77 -13 -261 -11 -340 5 -51 9 -102 8 -184 -4 -25 -4 -80 -9 -121 -11
-41 -1 -77 -4 -80 -5 -3 -1 -9 0 -15 1 -35 7 -141 15 -200 13 -38 0 -106 -1
-150 -1 -44 0 -136 0 -205 -1 -69 0 -138 3 -155 9 -16 5 -44 11 -62 13 -17 3
-36 8 -42 11 -5 3 -20 2 -33 -3 -63 -24 -165 -31 -251 -18 -151 23 -176 24
-357 14 -52 -2 -103 0 -113 5 -10 5 -46 10 -80 10 -34 0 -105 0 -157 -1 -52 0
-117 1 -145 2 -27 0 -77 -3 -110 -7 -74 -10 -71 -10 -120 -2 -70 13 -105 24
-106 34 -1 4 -3 21 -5 37 -3 17 -6 122 -8 235 -1 113 -5 219 -9 235 -22 101
-22 102 -12 210 11 119 13 226 3 265 -18 79 -22 133 -22 290 1 153 8 262 20
295 3 7 0 39 -6 72 -24 122 -26 160 -15 213 16 70 -10 517 -32 553 -2 4 2 7 9
7 10 0 10 2 0 9 -8 4 -13 12 -11 17 13 46 15 75 7 80 -5 3 -5 11 -1 17 4 7 7
62 6 122 -2 61 -5 172 -7 248 -2 84 1 137 7 137 6 0 6 5 1 13 -11 14 -11 77 0
95 4 6 4 12 -1 12 -12 0 -10 124 2 132 6 5 6 8 0 8 -6 0 -11 47 -11 118 -2
156 -7 232 -16 232 -4 0 -5 35 -2 78 3 42 7 100 8 128 3 32 -3 72 -14 105 -19
54 -20 116 -6 329 2 37 -4 104 -13 156 -17 90 -19 205 -6 299 4 28 7 82 7 120
-4 308 -11 537 -18 575 -5 25 -9 64 -9 88 0 23 -3 42 -6 42 -3 0 -5 11 -4 25
2 14 -1 25 -6 25 -5 0 -10 -10 -11 -22z"/>
<path d="M13246 4863 c-4 -16 -9 -39 -12 -53 -8 -35 -8 -88 0 -130 21 -103 37
-479 24 -551 -6 -36 5 -70 18 -56 9 8 9 406 0 498 -3 37 -10 93 -14 125 -4 33
-7 90 -6 127 3 71 -1 84 -10 40z"/>
<path d="M13259 3979 c-2 -30 0 -63 5 -146 5 -68 18 7 18 97 -1 67 -21 110
-23 49z"/>
<path d="M10613 3192 c-35 -2 -63 -6 -63 -10 0 -8 158 -7 166 1 8 8 -39 12
-103 9z"/>
<path d="M10848 3194 c-2 -1 -25 -4 -51 -5 -45 -3 -54 -10 -19 -16 14 -3 37
-7 90 -14 4 -1 9 0 12 1 3 1 24 3 48 4 47 3 71 16 29 16 -15 0 -28 0 -29 0 -2
1 -20 5 -40 9 -20 5 -38 7 -40 5z"/>
<path d="M10500 3180 c0 -4 7 -7 15 -6 23 3 26 12 5 13 -11 1 -20 -2 -20 -7z"/>
</g>
</svg>
